<svg id="visual" viewBox="0 0 1600 434" width="1600" height="434" xmlns="http://www.w3.org/2000/svg" xmlns:xlink="http://www.w3.org/1999/xlink" version="1.1"><path d="M0 306L14 308.2C28 310.3 56 314.7 84 302.8C112 291 140 263 168.2 245.8C196.3 228.7 224.7 222.3 252.8 219.7C281 217 309 218 337 243C365 268 393 317 421 316.8C449 316.7 477 267.3 505 249.3C533 231.3 561 244.7 589.2 255.2C617.3 265.7 645.7 273.3 673.8 286C702 298.7 730 316.3 758 304.5C786 292.7 814 251.3 842 236C870 220.7 898 231.3 926.2 242.2C954.3 253 982.7 264 1010.8 268.5C1039 273 1067 271 1095 257.5C1123 244 1151 219 1179 207.2C1207 195.3 1235 196.7 1263 222.3C1291 248 1319 298 1347.2 294.8C1375.3 291.7 1403.7 235.3 1431.8 227.8C1460 220.3 1488 261.7 1516 273.5C1544 285.3 1572 267.7 1586 258.8L1600 250L1600 435L1586 435C1572 435 1544 435 1516 435C1488 435 1460 435 1431.8 435C1403.7 435 1375.3 435 1347.2 435C1319 435 1291 435 1263 435C1235 435 1207 435 1179 435C1151 435 1123 435 1095 435C1067 435 1039 435 1010.8 435C982.7 435 954.3 435 926.2 435C898 435 870 435 842 435C814 435 786 435 758 435C730 435 702 435 673.8 435C645.7 435 617.3 435 589.2 435C561 435 533 435 505 435C477 435 449 435 421 435C393 435 365 435 337 435C309 435 281 435 252.8 435C224.7 435 196.3 435 168.2 435C140 435 112 435 84 435C56 435 28 435 14 435L0 435Z" fill="#72981D" stroke-linecap="round" stroke-linejoin="miter"></path></svg>